<svg width="309" height="330" viewBox="0 0 309 330" fill="none" xmlns="http://www.w3.org/2000/svg">
<path opacity="0.7" d="M18.4984 102.783C18.4984 102.783 -2.27067 156.419 26.9162 210.427C56.1031 264.436 116.22 292.967 164.336 317.364C212.452 341.761 262.415 329.879 286.157 289.92C309.898 249.962 277.336 221.438 277.292 164.457C277.247 107.476 285.821 92.3911 254.943 44.2529C224.065 -3.88537 148.372 -14.5455 91.1303 21.1596C33.8889 56.8648 18.4984 102.783 18.4984 102.783Z" fill="white"/>
<path d="M110.923 314.459C131.186 327.011 168.485 310.622 182.55 295.574C228.185 246.721 308.982 164.129 291.438 79.9581C283.989 44.2008 247.978 33.861 233.541 31.8571C198.879 27.0298 163.591 32.1476 129.391 39.5449C93.6333 47.2774 56.1105 58.4962 28.8232 84.1074C18.5504 93.7768 9.37273 105.174 4.60509 118.65C-0.237039 132.342 -1.13842 147.361 1.32734 161.626C5.32024 184.645 17.3213 205.578 31.9222 223.844C46.5231 242.11 63.7685 257.977 80.1423 274.634C90.8099 285.503 93.8568 303.851 110.923 314.459Z" fill="#0071BC"/>
<path opacity="0.7" d="M110.923 314.459C131.186 327.011 168.485 310.622 182.55 295.574C228.185 246.721 308.982 164.129 291.438 79.9581C283.989 44.2008 247.978 33.861 233.541 31.8571C198.879 27.0298 163.591 32.1476 129.391 39.5449C93.6333 47.2774 56.1105 58.4962 28.8232 84.1074C18.5504 93.7768 9.37273 105.174 4.60509 118.65C-0.237039 132.342 -1.13842 147.361 1.32734 161.626C5.32024 184.645 17.3213 205.578 31.9222 223.844C46.5231 242.11 63.7685 257.977 80.1423 274.634C90.8099 285.503 93.8568 303.851 110.923 314.459Z" fill="white"/>
<path d="M21.7759 91.0427H8.62769C8.62769 91.0427 9.93878 87.7873 20.1669 88.8675C20.1669 88.8675 25.2623 83.0346 32.6894 83.0346C32.8321 81.6546 33.4326 80.3621 34.3952 79.3631C35.3578 78.364 36.6271 77.7159 38.0008 77.522C43.0739 76.5461 44.0572 81.0679 44.0572 81.0679C45.4425 80.4689 46.9357 80.1599 48.4449 80.1599C49.9541 80.1599 51.4474 80.4689 52.8326 81.0679C57.861 83.0495 56.8404 88.8526 56.8404 88.8526C56.8404 88.8526 71.3519 88.3758 73.8475 91.0427H66.398" stroke="#263238" stroke-linecap="round" stroke-linejoin="round"/>
<path d="M24.0629 91.0427H26.2605" stroke="#263238" stroke-linecap="round" stroke-linejoin="round"/>
<path d="M38.3734 91.0054H58.4645" stroke="#263238" stroke-linecap="round" stroke-linejoin="round"/>
<path d="M133.845 164.3H114.648C114.648 164.3 115.773 161.522 124.496 162.445C124.496 162.445 128.847 157.469 135.179 157.469C135.303 156.291 135.817 155.189 136.638 154.336C137.46 153.483 138.543 152.929 139.715 152.761C144.044 151.934 144.885 155.793 144.885 155.793C146.067 155.282 147.341 155.018 148.629 155.018C149.916 155.018 151.19 155.282 152.372 155.793C156.663 157.484 155.799 162.438 155.799 162.438C155.799 162.438 168.18 162.028 170.303 164.3H165.654" stroke="#263238" stroke-linecap="round" stroke-linejoin="round"/>
<path d="M138.382 164.159H141.131" stroke="#263238" stroke-linecap="round" stroke-linejoin="round"/>
<path d="M132.482 34.7548H113.248C113.248 34.7548 114.372 31.9761 123.096 32.9073C123.096 32.9073 127.439 27.9236 133.778 27.9236C133.901 26.7462 134.415 25.6438 135.237 24.792C136.059 23.9402 137.143 23.3879 138.315 23.223C142.643 22.3887 143.485 26.2475 143.485 26.2475C144.661 25.7413 145.929 25.4802 147.21 25.4802C148.49 25.4802 149.758 25.7413 150.934 26.2475C155.225 27.9385 154.354 32.8924 154.354 32.8924C154.354 32.8924 166.742 32.4827 168.865 34.7548H164.217" stroke="#263238" stroke-linecap="round" stroke-linejoin="round"/>
<path d="M137.011 34.6133H139.768" stroke="#263238" stroke-linecap="round" stroke-linejoin="round"/>
<path d="M72.1341 199.41H24.1896C27.7653 195.588 48.6088 196.266 48.6088 196.266C48.6088 196.266 47.1189 187.937 54.3747 185.092C61.6304 182.246 66.9791 185.092 66.9791 185.092C66.9791 185.092 68.3945 178.596 75.6801 179.996C82.9656 181.397 83.3157 187.915 83.3157 187.915C93.9908 187.915 101.306 196.303 101.306 196.303C115.996 194.739 117.889 199.417 117.889 199.417H112.532" stroke="#263238" stroke-linecap="round" stroke-linejoin="round"/>
<path d="M108.517 199.41H106.483" stroke="#263238" stroke-linecap="round" stroke-linejoin="round"/>
<path d="M80.4328 199.41H87.4353" stroke="#263238" stroke-linecap="round" stroke-linejoin="round"/>
<path d="M236.431 84.3233H179.071C179.071 84.3233 181.447 78.4606 199.862 80.4198C199.862 80.4198 209.04 69.9012 222.412 69.9012C222.412 69.9012 222.859 61.7068 231.992 59.9711C241.125 58.2354 242.898 66.3627 242.898 66.3627C242.898 66.3627 249.647 62.787 258.705 66.3627C267.764 69.9385 265.931 80.39 265.931 80.39C265.931 80.39 292.071 79.5333 296.556 84.3233H283.303" stroke="#263238" stroke-linecap="round" stroke-linejoin="round"/>
<path d="M241.914 84.3233H247.248" stroke="#263238" stroke-linecap="round" stroke-linejoin="round"/>
<path d="M252.463 214.025H298.21C298.21 214.025 296.317 209.355 281.627 210.912C281.627 210.912 274.312 202.523 263.644 202.523C263.644 202.523 263.287 196.005 256.001 194.605C248.716 193.204 247.3 199.7 247.3 199.7C247.3 199.7 241.922 196.847 234.696 199.7C227.47 202.553 228.937 210.874 228.937 210.874C228.937 210.874 208.079 210.189 204.511 214.011H218.352" stroke="#263238" stroke-linecap="round" stroke-linejoin="round"/>
<path d="M222.091 214.025H228.841" stroke="#263238" stroke-linecap="round" stroke-linejoin="round"/>
<path d="M158.488 231.807V195.789H164.425V210.308H170.266V232.023" stroke="#263238" stroke-linecap="round" stroke-linejoin="round"/>
<path d="M181.723 209.965V176.219H193.597V161.589H216.385V166.781H222.091V201.138" stroke="#263238" stroke-linecap="round" stroke-linejoin="round"/>
<path d="M247.248 188.079V154.326H254.891V139.039H257.901V112.765H260.396V125.407L266.527 131.538V146.839H273.537V180.361H279.914V189.599" stroke="#263238" stroke-linecap="round" stroke-linejoin="round"/>
<path d="M225.466 183.162H231.321V146.481H236.029V93.7394H237.81V129.139H241.914V166.036H244.834" stroke="#263238" stroke-linecap="round" stroke-linejoin="round"/>
<path d="M179.071 189.599H174.132V178.693H171.502V189.599H167.822V205.958" stroke="#263238" stroke-linecap="round" stroke-linejoin="round"/>
<path d="M188.278 172.487V146.839H196.286V125.407H199.058V146.839H204.518V158.065" stroke="#263238" stroke-linecap="round" stroke-linejoin="round"/>
<path d="M196.398 176.219H209.144V204.9" stroke="#263238" stroke-linecap="round" stroke-linejoin="round"/>
<path d="M190.945 230.213V213.176H176.434V249.202" stroke="#263238" stroke-linecap="round" stroke-linejoin="round"/>
<path d="M164.425 239.629V234.794H149.586V273.68H145.66" stroke="#263238" stroke-linecap="round" stroke-linejoin="round"/>
<path d="M257.901 165.656H267.928" stroke="#263238" stroke-linecap="round" stroke-linejoin="round"/>
<path d="M257.901 170.945H267.928" stroke="#263238" stroke-linecap="round" stroke-linejoin="round"/>
<path d="M257.901 176.83H267.16" stroke="#263238" stroke-linecap="round" stroke-linejoin="round"/>
<path d="M212.645 164.3H199.058" stroke="#263238" stroke-linecap="round" stroke-linejoin="round"/>
<path d="M186.334 182.425H201.903" stroke="#263238" stroke-linecap="round" stroke-linejoin="round"/>
<path d="M186.334 185.777H201.903" stroke="#263238" stroke-linecap="round" stroke-linejoin="round"/>
<path d="M186.334 189.599H201.903" stroke="#263238" stroke-linecap="round" stroke-linejoin="round"/>
<path d="M235.15 153.514V188.079" stroke="#263238" stroke-linecap="round" stroke-linejoin="round"/>
<path d="M237.81 153.514V188.079" stroke="#263238" stroke-linecap="round" stroke-linejoin="round"/>
<path d="M59.0604 101.77C59.0604 101.77 66.927 94.5438 72.3726 95.4079C73.2814 95.5495 68.6106 104.444 68.6106 104.444L59.0604 101.77Z" fill="#0071BC"/>
<path opacity="0.5" d="M59.0604 101.77C59.0604 101.77 66.927 94.5438 72.3726 95.4079C73.2814 95.5495 68.6106 104.444 68.6106 104.444L59.0604 101.77Z" fill="black" fill-opacity="0.7"/>
<path d="M59.0604 101.77C59.0604 101.77 66.927 94.5438 72.3726 95.4079C73.2814 95.5495 68.6106 104.444 68.6106 104.444L59.0604 101.77Z" stroke="#263238" stroke-linecap="round" stroke-linejoin="round"/>
<path d="M131.119 133.147C131.119 133.147 131.417 156.821 132.296 160.769C133.099 163.7 134.289 166.511 135.834 169.128C135.834 169.128 133.272 220.998 134.106 223.397C134.94 225.795 138.486 242.214 138.486 242.214L142.613 305.08H141.123C141.123 305.08 135.507 245.745 135.507 243.987C135.507 242.229 131.089 226.764 131.089 226.764C131.089 226.764 130.501 175.318 131.089 172.383C131.678 169.448 127.633 161.693 127.633 161.693C127.633 161.693 127.685 137.9 126.441 135.538C126.47 135.531 129.055 133.415 131.119 133.147Z" fill="#757575" stroke="#263238" stroke-linecap="round" stroke-linejoin="round"/>
<path d="M72.3726 160.769C72.3726 160.769 64.3719 174.216 66.927 186.097C66.927 186.097 63.8802 226.905 62.6958 229.557C61.5113 232.209 53.5628 243.935 51.1193 261.009C49.642 271.341 47.401 281.55 44.4149 291.552H55.0526C55.0526 291.552 70.9348 241.29 74.1902 238.661C77.4456 236.031 83.435 218.45 87.6663 202.762C87.6663 202.762 93.3725 230.593 95.6446 235.904C97.9167 241.216 96.0171 256.554 99.265 266.358C102.476 276.042 102.245 291.581 102.245 291.581C102.245 291.581 113.307 294.323 113.203 291.581C112.458 272.615 116.294 256.197 111.549 239.316C109.314 231.435 113.784 185.375 105.634 160.807L72.3726 160.769Z" fill="#BFBFBF"/>
<path opacity="0.3" d="M87.4353 199.409C87.4353 199.946 87.5173 201.302 87.6141 202.985C83.3828 218.629 77.4382 235.986 74.2051 238.623C70.9721 241.26 55.0675 291.514 55.0675 291.514H44.4446C47.4308 281.513 49.6718 271.304 51.1491 260.972C53.5702 243.898 61.5783 232.202 62.7256 229.542C63.8728 226.883 66.927 186.149 66.927 186.149C66.3136 183.061 66.253 179.888 66.7482 176.778C67.3144 180.823 69.728 185.844 77.9224 187.14C77.4216 185.583 77.2794 183.932 77.5065 182.312C77.7335 180.692 78.3239 179.144 79.2335 177.784C79.2335 177.784 77.6468 186.15 84.3662 190.068C84.6641 190.239 84.5673 191.424 84.5673 191.424C84.5673 191.424 87.4055 197.465 87.4353 199.409Z" fill="black" fill-opacity="0.7"/>
<path opacity="0.3" d="M106.692 164.174C103.973 165.82 98.0806 167.742 85.5357 167.235C83.4708 168.932 81.7403 170.998 80.4329 173.329L79.2335 172.376C79.2335 172.376 73.49 175.646 67.2474 174.044C68.3138 169.395 70.0397 164.922 72.3726 160.762H105.709C106.044 161.857 106.379 162.997 106.692 164.174Z" fill="black" fill-opacity="0.7"/>
<path d="M72.3726 160.769C72.3726 160.769 64.3719 174.216 66.927 186.097C66.927 186.097 63.8802 226.905 62.6958 229.557C61.5113 232.209 53.5628 243.935 51.1193 261.009C49.642 271.341 47.401 281.55 44.4149 291.552H55.0526C55.0526 291.552 70.9348 241.29 74.1902 238.661C77.4456 236.031 83.435 218.45 87.6663 202.762C87.6663 202.762 93.3725 230.593 95.6446 235.904C97.9167 241.216 96.0171 256.554 99.265 266.358C102.476 276.042 102.245 291.581 102.245 291.581C102.245 291.581 113.307 294.323 113.203 291.581C112.458 272.615 116.294 256.197 111.549 239.316C109.314 231.435 113.784 185.375 105.634 160.807L72.3726 160.769Z" stroke="#263238" stroke-linecap="round" stroke-linejoin="round"/>
<path d="M81.312 171.288C81.312 171.288 75.7994 181.814 81.7962 188.071C81.7962 188.071 89.3722 195.186 97.5443 193.48" stroke="#263238" stroke-linecap="round" stroke-linejoin="round"/>
<path d="M87.6812 202.724C87.6812 202.724 86.9362 196.988 85.5134 194.53C84.0905 192.072 84.5673 191.401 84.5673 191.401C84.5673 191.401 78.1161 193.39 73.9444 191.871" stroke="#263238" stroke-linecap="round" stroke-linejoin="round"/>
<path d="M66.9271 186.15C68.3878 187.526 70.1214 188.58 72.0155 189.243C73.9097 189.907 75.9221 190.165 77.9224 190.001" stroke="#263238" stroke-linecap="round" stroke-linejoin="round"/>
<path d="M81.3119 98.3877C81.9078 98.1419 111.639 95.9219 113.121 92.8602C111.662 90.0896 110.565 87.1427 109.858 84.0922C108.001 77.0524 105.015 70.3604 101.016 64.2767L108.465 62.9135C112.935 75.4732 123.483 86.6176 123.297 98.2685C123.297 98.2685 107.206 109.212 90.8248 110.992C86.1093 111.491 81.3119 98.3877 81.3119 98.3877Z" fill="white" stroke="#263238" stroke-linecap="round" stroke-linejoin="round"/>
<path d="M91.2196 90.1114C90.2113 89.9713 89.1849 90.1676 88.2995 90.6701C85.275 92.5027 85.8262 97.9706 85.8262 97.9706L72.3726 95.408C75.3076 91.1394 74.5552 81.3434 74.5552 81.3434C87.1597 69.5286 90.199 80.3527 90.944 86.558C91.1749 88.3086 91.2122 89.6868 91.2196 90.1114Z" fill="white" stroke="#263238" stroke-linecap="round" stroke-linejoin="round"/>
<path d="M91.2197 90.1114C90.2114 89.9713 89.1849 90.1677 88.2995 90.6702C87.2218 88.8686 86.5435 86.8566 86.3105 84.7702L90.9664 86.5655C91.175 88.3087 91.2123 89.6868 91.2197 90.1114Z" fill="#263238"/>
<path d="M67.5453 61.1778C67.5453 61.1778 66.3981 54.4733 77.6616 53.4453C88.9252 52.4173 99.265 55.5237 99.265 63.733C99.265 71.9423 92.4711 88.8972 78.9504 81.3435C65.4297 73.7897 67.5453 61.1778 67.5453 61.1778Z" fill="#263238"/>
<path d="M74.086 82.2746C72.9239 80.7847 69.8547 75.4361 69.3631 73.3949C66.3237 60.8426 73.1921 59.9338 78.3024 57.3935C88.0239 52.5737 96.8664 62.3474 96.1065 71.0483C95.3467 79.7493 99.4513 78.7213 99.2651 79.9206C99.1087 80.9337 96.5014 81.9618 96.5014 81.9618C96.4596 82.7072 96.482 83.4549 96.5684 84.1966L95.9278 84.7851C95.5925 86.4389 94.8327 90.6105 94.2889 90.7446C93.2013 91.0724 87.1002 88.9419 86.0945 86.6847" fill="white"/>
<path d="M74.086 82.2746C72.9239 80.7847 69.8547 75.4361 69.3631 73.3949C66.3237 60.8426 73.1921 59.9338 78.3024 57.3935C88.0239 52.5737 96.8664 62.3474 96.1065 71.0483C95.3467 79.7493 99.4513 78.7213 99.2651 79.9206C99.1087 80.9337 96.5014 81.9618 96.5014 81.9618C96.4596 82.7072 96.482 83.4549 96.5684 84.1966L95.9278 84.7851C95.5925 86.4389 94.8327 90.6105 94.2889 90.7446C93.2013 91.0724 87.1002 88.9419 86.0945 86.6847" stroke="#263238" stroke-linecap="round" stroke-linejoin="round"/>
<path d="M95.1679 74.7208C95.0785 75.354 94.7209 75.8234 94.3708 75.7787C94.0207 75.734 93.7972 75.1753 93.8791 74.5421C93.9611 73.9089 94.3261 73.4395 94.6837 73.4917C95.0412 73.5438 95.2796 74.0876 95.1679 74.7208Z" fill="#263238"/>
<path d="M95.6446 69.7745C95.6446 69.7745 94.0206 69.4988 92.3892 71.2643" stroke="#263238" stroke-linecap="round" stroke-linejoin="round"/>
<path d="M92.2998 57.4382C87.8301 54.0189 62.8894 50.5028 67.0313 70.214C66.4801 72.6574 68.1562 76.7769 73.7358 83.4591C73.7358 83.4591 76.44 81.3434 79.3378 83.1611C79.3378 83.1611 81.0884 77.7379 84.1054 76.5087C84.7575 76.2232 85.3359 75.7926 85.7964 75.2498C93.7822 73.2533 94.7954 65.6773 94.6911 63.0253C95.1678 62.3027 96.0245 60.2541 92.2998 57.4382Z" fill="#263238"/>
<path d="M72.3726 58.0193C72.3726 58.0193 65.8767 50.7189 57.9132 54.7937C49.9498 58.8685 52.0803 70.2513 56.4904 76.3971C60.9005 82.5428 55.4922 87.4967 57.1981 90.8415C58.904 94.1863 62.5021 92.8082 62.5021 92.8082C61.9098 92.4492 61.409 91.9575 61.0393 91.3719C60.6695 90.7862 60.441 90.1227 60.3716 89.4336C60.081 87.02 64.9232 85.8802 64.9232 79.0491C64.9232 72.2179 63.3588 66.1019 69.0501 68.9476C74.7415 71.7933 72.3726 58.0193 72.3726 58.0193Z" fill="#263238"/>
<path d="M95.9352 84.7627C95.9352 84.7627 93.447 84.8894 92.3892 83.906" stroke="#263238" stroke-linecap="round" stroke-linejoin="round"/>
<g opacity="0.2">
<path d="M72.3726 58.0192C72.3726 58.0192 76.2463 62.9656 71.5904 67.0628" stroke="white" stroke-linecap="round" stroke-linejoin="round"/>
<path d="M92.2998 57.4381C92.2998 57.4381 98.2594 63.9415 86.3403 71.227" stroke="white" stroke-linecap="round" stroke-linejoin="round"/>
<path d="M90.065 56.2983C90.065 56.2983 92.3892 58.5332 87.0852 62.9209C81.7812 67.3086 77.8181 68.4484 73.9072 68.2472" stroke="white" stroke-linecap="round" stroke-linejoin="round"/>
<path d="M70.5922 61.8482C70.5922 61.8482 67.158 56.2611 61.7125 60.0901C56.2669 63.9191 57.4439 69.1933 60.3865 75.2497C63.329 81.3061 61.3325 85.2841 61.3325 85.2841" stroke="white" stroke-linecap="round" stroke-linejoin="round"/>
<path d="M60.2673 55.3747C60.2673 55.3747 53.5628 55.5683 54.0768 64.314C54.5908 73.0596 57.7121 73.0075 58.3975 77.2239" stroke="white" stroke-linecap="round" stroke-linejoin="round"/>
<path d="M78.4439 75.2497C78.4439 75.2497 71.7394 76.7396 69.2215 71.227" stroke="white" stroke-linecap="round" stroke-linejoin="round"/>
</g>
<path d="M84.9099 76.0842C84.9099 76.0842 83.8074 72.0615 80.8872 73.4173C77.9671 74.7731 80.5222 78.6319 81.9674 80.4645C82.159 80.7619 82.4327 80.9975 82.7553 81.1429C83.0779 81.2882 83.4357 81.337 83.7854 81.2835C84.1352 81.2299 84.4619 81.0762 84.7263 80.841C84.9906 80.6058 85.1812 80.2991 85.275 79.9579" fill="white"/>
<path d="M84.9099 76.0842C84.9099 76.0842 83.8074 72.0615 80.8872 73.4173C77.9671 74.7731 80.5222 78.6319 81.9674 80.4645C82.159 80.7619 82.4327 80.9975 82.7553 81.1429C83.0779 81.2882 83.4357 81.337 83.7854 81.2835C84.1352 81.2299 84.4619 81.0762 84.7263 80.841C84.9906 80.6058 85.1812 80.2991 85.275 79.9579" stroke="#263238" stroke-linecap="round" stroke-linejoin="round"/>
<path d="M71.4414 93.3221L71.1286 95.5942C59.6341 106.344 67.2251 131.605 74.4436 147.74L69.8324 162.311C69.8324 162.311 89.4989 168.859 107.422 163.734L105.709 146.623L103.72 133.259C103.72 133.259 105.359 128.707 105.679 119.85C105.999 110.992 89.3201 88.3459 71.4414 93.3221Z" fill="#263238"/>
<path d="M104.219 66.5637C104.219 66.5637 101.239 68.1579 99.9653 67.7258C99.9653 67.7258 93.5513 68.0908 93.3726 65.3792C94.4723 65.1885 95.5234 64.7823 96.4656 64.184C97.4078 63.5857 98.2225 62.8071 98.8628 61.8929C99.9355 60.403 109.188 60.403 108.644 63.4945C108.554 63.9926 108.349 64.4629 108.047 64.8687C107.744 65.2745 107.352 65.6048 106.901 65.8337" fill="white"/>
<path d="M104.219 66.5637C104.219 66.5637 101.239 68.1579 99.9653 67.7258C99.9653 67.7258 93.5513 68.0908 93.3726 65.3792C94.4723 65.1885 95.5234 64.7823 96.4656 64.184C97.4078 63.5857 98.2225 62.8071 98.8628 61.8929C99.9355 60.403 109.188 60.403 108.644 63.4945C108.554 63.9926 108.349 64.4629 108.047 64.8687C107.744 65.2745 107.352 65.6048 106.901 65.8337" stroke="#263238" stroke-linecap="round" stroke-linejoin="round"/>
<path d="M98.8553 61.8929C100.174 61.6843 99.5258 62.3548 100.464 62.2878C101.403 62.2207 101.485 61.6173 102.17 62.5112C102.856 63.4052 103.616 62.5112 104.323 62.8092" fill="white"/>
<path d="M98.8553 61.8929C100.174 61.6843 99.5258 62.3548 100.464 62.2878C101.403 62.2207 101.485 61.6173 102.17 62.5112C102.856 63.4052 103.616 62.5112 104.323 62.8092" stroke="#263238" stroke-linecap="round" stroke-linejoin="round"/>
<path d="M99.9578 67.7035C100.047 66.9586 102.662 65.5506 103.347 64.6269L99.9578 67.7035Z" fill="white"/>
<path d="M99.9578 67.7035C100.047 66.9586 102.662 65.5506 103.347 64.6269" stroke="#263238" stroke-linecap="round" stroke-linejoin="round"/>
<path d="M97.7379 67.7035C96.9259 66.7202 98.8032 66.2732 100.598 64.5151L97.7379 67.7035Z" fill="white"/>
<path d="M97.7379 67.7035C96.9259 66.7202 98.8032 66.2732 100.598 64.5151" stroke="#263238" stroke-linecap="round" stroke-linejoin="round"/>
<path d="M95.5701 67.3236C94.557 66.3179 94.9816 65.9604 96.5683 65.2229C97.4424 64.854 98.2106 64.2728 98.8032 63.5319" fill="white"/>
<path d="M95.5701 67.3236C94.557 66.3179 94.9816 65.9604 96.5683 65.2229C97.4424 64.854 98.2106 64.2728 98.8032 63.5319" stroke="#263238" stroke-linecap="round" stroke-linejoin="round"/>
<path d="M98.1923 285.45C98.1923 285.45 104.845 283.29 110.156 285.242L111.81 291.544L115.393 285.45C115.393 285.45 114.194 293.116 115.393 295.463C116.592 297.809 123.736 298.919 124.906 300.446C126.076 301.973 126.455 305.08 126.455 305.08H98.6914L100.852 295.463L98.1923 285.45Z" fill="#0071BC" stroke="#263238" stroke-linecap="round" stroke-linejoin="round"/>
<path d="M42.8133 285.45C42.8133 285.45 48.0279 283.29 53.3393 285.242L52.8327 291.544L59.3063 285.45C59.3063 285.45 55.2315 293.116 56.4308 295.463C57.6302 297.809 64.7742 298.919 65.9437 300.446C67.1133 301.973 67.4932 305.08 67.4932 305.08H39.7143L42.5898 295.463L42.8133 285.45Z" fill="#0071BC"/>
<path opacity="0.3" d="M42.8133 285.45C42.8133 285.45 48.0279 283.29 53.3393 285.242L52.8327 291.544L59.3063 285.45C59.3063 285.45 55.2315 293.116 56.4308 295.463C57.6302 297.809 64.7742 298.919 65.9437 300.446C67.1133 301.973 67.4932 305.08 67.4932 305.08H39.7143L42.5898 295.463L42.8133 285.45Z" fill="black" fill-opacity="0.7"/>
<path d="M42.8133 285.45C42.8133 285.45 48.0279 283.29 53.3393 285.242L52.8327 291.544L59.3063 285.45C59.3063 285.45 55.2315 293.116 56.4308 295.463C57.6302 297.809 64.7742 298.919 65.9437 300.446C67.1133 301.973 67.4932 305.08 67.4932 305.08H39.7143L42.5898 295.463L42.8133 285.45Z" stroke="#263238" stroke-linecap="round" stroke-linejoin="round"/>
<path d="M98.6989 142.488C98.6989 142.488 102.714 137.117 103.429 134.115L104.256 136.723C104.256 136.723 102.133 142.682 98.6989 145.774V142.488Z" fill="#BFBFBF" stroke="#263238" stroke-linecap="round" stroke-linejoin="round"/>
<path d="M82.772 145.058C82.772 145.058 88.3889 147.174 92.3669 145.848C94.9868 144.868 97.3504 143.307 99.28 141.282L100.576 143.636C100.576 143.636 91.5996 159.279 82.772 156.911" fill="#0071BC"/>
<path d="M82.772 145.058C82.772 145.058 88.3889 147.174 92.3669 145.848C94.9868 144.868 97.3504 143.307 99.28 141.282L100.576 143.636C100.576 143.636 91.5996 159.279 82.772 156.911" stroke="#263238" stroke-linecap="round" stroke-linejoin="round"/>
<path d="M83.3605 165.656C80.4403 173.329 52.1474 171.564 46.6422 167.25C45.428 166.297 44.3031 164.457 43.3198 162.133C41.3644 157.165 40.0502 151.968 39.4088 146.667C39.2375 145.289 39.1183 143.986 39.0662 142.816C38.9395 140.194 39.1258 138.22 39.6845 137.505C41.9193 134.666 44.4149 131.918 44.4149 131.918C44.4149 131.918 40.0644 108.675 44.4149 106.455C48.0048 104.313 51.9354 102.801 56.036 101.986C62.3233 100.876 72.9015 97.7471 77.6393 104.221C77.8815 104.561 78.0887 104.926 78.2576 105.308C82.7198 114.776 86.154 158.311 83.3605 165.656Z" fill="#0071BC"/>
<path opacity="0.3" d="M83.3605 165.656C80.4403 173.329 52.1474 171.564 46.6422 167.25C45.428 166.297 44.3031 164.457 43.3198 162.133C41.7703 156.836 40.34 150.72 39.4461 146.668C38.8874 144.112 38.5298 142.384 38.5 142.198C38.6431 142.454 38.8513 142.667 39.1034 142.816C40.4369 143.77 44.6383 145.55 57.727 146.414C57.727 146.414 48.2066 149.059 40.7423 145.788C40.7423 145.788 43.2974 161.194 46.0463 164.233C48.7951 167.273 61.2729 169.835 64.2229 168.167C67.1729 166.498 65.169 150.839 65.7798 149.238C66.3907 147.636 68.7596 146.303 68.8862 145.788C69.0129 145.274 69.5269 137.758 69.5269 137.758C69.5269 137.758 51.1566 133.989 46.0463 134.13C40.936 134.272 48.2066 130.636 53.3169 131.225C58.4272 131.813 68.6404 133.989 68.8862 134.13C69.1321 134.272 66.7632 111.663 64.1186 108.281C61.4741 104.899 67.456 105.048 68.8862 110.426C70.2569 115.641 73.6911 134.562 73.937 135.866C73.8774 134.83 73.192 123.723 72.4918 119.581C71.7841 115.238 71.8511 109.517 72.6035 108.929C73.3559 108.34 77.1551 106.835 77.5127 106.016C77.7027 105.725 77.9577 105.483 78.2576 105.308C82.7198 114.776 86.154 158.311 83.3605 165.656Z" fill="black" fill-opacity="0.7"/>
<path d="M83.3605 165.656C80.4403 173.329 52.1474 171.564 46.6422 167.25C45.428 166.297 44.3031 164.457 43.3198 162.133C41.3644 157.165 40.0502 151.968 39.4088 146.667V146.667C39.2375 145.289 39.1183 143.986 39.0662 142.816C38.9395 140.194 39.1258 138.22 39.6845 137.505C41.9193 134.666 44.4149 131.918 44.4149 131.918C44.4149 131.918 40.0644 108.675 44.4149 106.455C48.0048 104.313 51.9354 102.801 56.036 101.986C62.3233 100.876 72.9015 97.7471 77.6393 104.221C77.8816 104.561 78.0887 104.926 78.2576 105.308C82.7198 114.776 86.154 158.311 83.3605 165.656Z" stroke="#263238" stroke-linecap="round" stroke-linejoin="round"/>
<path d="M68.6106 101.643C66.6309 100.011 64.2479 98.9435 61.7125 98.5516C57.5929 97.9631 54.0544 103.558 54.0544 103.558H55.9689C55.9689 103.558 58.6209 98.4027 63.9249 102.969" fill="#0071BC"/>
<path d="M68.6106 101.643C66.6309 100.011 64.2479 98.9435 61.7125 98.5516C57.5929 97.9631 54.0544 103.558 54.0544 103.558H55.9689C55.9689 103.558 58.6209 98.4027 63.9249 102.969" stroke="#263238" stroke-linecap="round" stroke-linejoin="round"/>
<path d="M49.0409 105.621C49.0409 105.621 59.9469 104.735 63.4854 107.536C67.0238 110.337 68.8862 133.147 68.8862 133.147C68.8862 133.147 52.557 128.61 47.8639 130.964" stroke="#263238" stroke-linecap="round" stroke-linejoin="round"/>
<path d="M45.6514 125.809C45.6514 125.809 42.6717 115.38 44.4446 112.698C46.2176 110.016 57.4439 110.463 59.5074 112.698C61.5709 114.933 61.7422 127.433 61.7422 127.433C61.7422 127.433 52.1623 125.288 47.8937 125.943" stroke="#263238" stroke-linecap="round" stroke-linejoin="round"/>
<path d="M40.3475 143.636C40.936 144.381 61.6231 148.061 65.2062 145.699" stroke="#263238" stroke-linecap="round" stroke-linejoin="round"/>
<path d="M41.234 139.665C42.7239 138.488 57.6228 141.431 60.6845 141.572C63.7462 141.714 69.2066 138.332 69.527 137.728C69.527 137.728 73.6018 159.98 72.3726 164.256C71.1435 168.532 67.754 169.262 67.754 169.262" stroke="#263238" stroke-linecap="round" stroke-linejoin="round"/>
<path d="M45.063 162.796C45.063 162.796 45.9495 167.802 64.2229 169.277" stroke="#263238" stroke-linecap="round" stroke-linejoin="round"/>
<path d="M74.6819 144.232C75.4268 143.934 80.7085 143.375 82.6379 142.168C82.7992 144.659 82.7917 147.158 82.6155 149.647C82.6155 149.647 76.872 151.882 75.8365 151.42C74.8011 150.958 74.4062 147.733 74.4062 147.733" stroke="#263238" stroke-linecap="round" stroke-linejoin="round"/>
<path d="M81.7961 149.99C81.7961 149.99 82.2803 159.473 81.7961 160.769C81.3119 162.066 76.1569 163.973 75.5684 163.824C74.9799 163.675 73.9444 154.542 73.9444 154.542" stroke="#263238" stroke-linecap="round" stroke-linejoin="round"/>
<path d="M62.6957 104.444C62.6957 104.444 68.0519 104.444 69.9664 107.983C71.8809 111.521 74.0338 131.94 74.436 133.147" stroke="#263238" stroke-linecap="round" stroke-linejoin="round"/>
<path d="M72.3726 101.971C72.3726 101.971 84.2916 95.4303 90.5268 97.4491C96.762 99.4679 99.2799 105.77 99.2799 105.77C99.2799 105.77 97.1494 99.8851 91.2196 100.265C85.2899 100.645 76.7454 106.537 76.7454 106.537" fill="#0071BC"/>
<path d="M72.3726 101.971C72.3726 101.971 84.2917 95.4303 90.5268 97.4491C96.762 99.4679 99.2799 105.77 99.2799 105.77C99.2799 105.77 97.1494 99.8851 91.2196 100.265C85.2899 100.645 76.7454 106.537 76.7454 106.537" stroke="#263238" stroke-linecap="round" stroke-linejoin="round"/>
<path d="M91.2197 100.235C91.2197 100.235 97.9242 99.6765 99.9802 102.82C102.036 105.964 99.9802 114.136 99.9802 114.136C99.9802 114.136 101.746 116.222 98.6989 117.726C95.6521 119.231 87.4652 120.051 85.5209 117.086C83.5766 114.121 84.6195 101.472 91.2197 100.235Z" fill="#263238"/>
<path d="M99.5034 114.724C99.5034 114.724 92.4116 140.358 94.7358 142.861C97.7295 143.028 100.695 143.527 103.578 144.351C116.89 147.74 124.437 145.282 124.437 145.282L123.021 152.694C109.687 152.344 96.7918 154.765 86.0051 150.37C86.0051 150.37 81.6173 131.419 85.8859 115.499C85.8859 115.499 87.1225 113.905 90.7876 113.428C93.7571 112.969 96.7961 113.421 99.5034 114.724Z" fill="white" stroke="#263238" stroke-linecap="round" stroke-linejoin="round"/>
<path d="M122.373 152.716C124.906 154.378 128.571 151.77 131.961 152.091C135.35 152.411 133.711 142.704 133.711 142.704C133.711 142.704 129.473 140.678 128.228 140.224C126.984 139.769 125.13 142.578 121.211 146.183" fill="white"/>
<path d="M122.373 152.716C124.906 154.378 128.571 151.77 131.961 152.091C135.35 152.411 133.711 142.704 133.711 142.704C133.711 142.704 129.473 140.678 128.228 140.224C126.984 139.769 125.13 142.578 121.211 146.183" stroke="#263238" stroke-linecap="round" stroke-linejoin="round"/>
<path d="M72.8419 95.4974C76.5876 95.1687 80.3619 95.453 84.0161 96.3392" stroke="white" stroke-linecap="round" stroke-linejoin="round"/>
<path d="M85.2751 116.616C85.2751 116.616 84.1279 114.94 85.2751 114.136C85.2751 114.136 81.9377 111.566 82.4145 108.921" stroke="white" stroke-linecap="round" stroke-linejoin="round"/>
<path d="M100.896 110.866L100.576 114.136C100.576 114.136 102.222 115.186 99.2799 116.617" stroke="white" stroke-linecap="round" stroke-linejoin="round"/>
<path d="M102.29 134.115C102.29 134.115 98.7585 136.79 96.7397 136.35" stroke="white" stroke-linecap="round" stroke-linejoin="round"/>
<path d="M87.6961 159.898C87.6961 159.898 96.1438 164.807 105.083 162.796" stroke="white" stroke-linecap="round" stroke-linejoin="round"/>
<path d="M129.249 143.636C130.841 143.848 132.415 144.182 133.957 144.634" stroke="#263238" stroke-linecap="round" stroke-linejoin="round"/>
<path d="M129.249 146.727C129.249 146.727 133.071 146.727 134.106 146.839" stroke="#263238" stroke-linecap="round" stroke-linejoin="round"/>
<path d="M129.249 149.223C129.249 149.223 134.054 149.081 133.957 149.565" stroke="#263238" stroke-linecap="round" stroke-linejoin="round"/>
<path d="M42.1204 301.75C42.1204 301.75 49.6146 301.005 53.6 302.629" stroke="#263238" stroke-linecap="round" stroke-linejoin="round"/>
<path d="M43.8785 294.755C43.8785 294.755 48.0055 293.801 50.2179 294.755" stroke="#263238" stroke-linecap="round" stroke-linejoin="round"/>
<path d="M56.4308 295.463C56.4308 295.463 57.4439 297.325 57.1757 298.651" stroke="#263238" stroke-linecap="round" stroke-linejoin="round"/>
<path d="M65.9437 300.446C64.1453 300.625 62.3337 300.625 60.5354 300.446" stroke="#263238" stroke-linecap="round" stroke-linejoin="round"/>
<path d="M115.393 295.463C115.393 295.463 118.134 298.651 118.134 299.537" stroke="#263238" stroke-linecap="round" stroke-linejoin="round"/>
<path d="M124.921 300.446C123.612 300.688 122.274 300.739 120.95 300.595" stroke="#263238" stroke-linecap="round" stroke-linejoin="round"/>
<path d="M100.613 302.629C100.613 302.629 109.009 301.303 114.022 302.629" stroke="#263238" stroke-linecap="round" stroke-linejoin="round"/>
<path d="M102.677 295.463C102.677 295.463 106.804 295.589 108.577 294.546" stroke="#263238" stroke-linecap="round" stroke-linejoin="round"/>
<path d="M84.3662 198.307C84.3662 198.307 79.8295 225.617 73.937 232.098C73.937 232.098 66.279 253.276 63.2322 258.916C60.1854 264.555 56.4234 282.635 56.4234 282.635" stroke="#263238" stroke-linecap="round" stroke-linejoin="round"/>
<path d="M62.6957 229.58C62.6957 229.58 65.4967 225.497 68.6553 229.58" stroke="#263238" stroke-linecap="round" stroke-linejoin="round"/>
<path d="M98.3786 233.826C98.3786 233.826 99.7344 226.63 105.627 232.522" stroke="#263238" stroke-linecap="round" stroke-linejoin="round"/>
<path d="M105.627 166.781C105.627 166.781 109.113 181.769 108.525 190.038C108.525 190.038 110.491 220.976 109.903 229.58" stroke="#263238" stroke-linecap="round" stroke-linejoin="round"/>
<path d="M113.158 92.8603C113.158 92.8603 116.816 94.7003 118.976 93.0614" stroke="#263238" stroke-linecap="round" stroke-linejoin="round"/>
<path d="M240.268 283.313C240.268 283.313 238.704 266.849 241.885 251.608C245.065 236.366 238.905 234.563 236.357 238.743C233.809 242.922 232.982 256.763 232.982 256.763C232.982 256.763 231.701 242.735 229.496 235.584C226.263 225.103 222.792 217.117 218.18 219.478C212.824 222.205 225.272 241.082 227.723 263.177C227.723 263.177 217.696 252.852 212.891 243.227C208.086 233.602 202.254 239.45 206.537 248.069C210.82 256.688 221.026 259.839 226.65 268.98C226.65 268.98 212.608 260.607 209.77 265.68C208.168 268.54 213.882 269.144 216.43 269.762C228.811 272.742 234.547 285.607 234.547 285.607L240.268 283.313Z" fill="#0071BC" stroke="#263238" stroke-linecap="round" stroke-linejoin="round"/>
<path opacity="0.2" d="M240.268 283.313C240.268 283.313 238.704 266.849 241.885 251.608C245.065 236.366 238.905 234.563 236.357 238.743C233.809 242.922 232.982 256.763 232.982 256.763C232.982 256.763 231.701 242.735 229.496 235.584C226.263 225.103 222.792 217.117 218.18 219.478C212.824 222.205 225.272 241.082 227.723 263.177C227.723 263.177 217.696 252.852 212.891 243.227C208.086 233.602 202.254 239.45 206.537 248.069C210.82 256.688 221.026 259.839 226.65 268.98C226.65 268.98 212.608 260.607 209.77 265.68C208.168 268.54 213.882 269.144 216.43 269.762C228.811 272.742 234.547 285.607 234.547 285.607L240.268 283.313Z" fill="black" fill-opacity="0.7" stroke="#263238" stroke-miterlimit="10"/>
<path d="M239.687 263.356C239.687 263.356 240.514 248.36 235.046 235.934C229.578 223.508 234.457 222.525 237.385 225.646C240.313 228.768 242.547 244.844 242.547 244.844C242.547 244.844 245.118 230.436 243.948 220.469C242.778 210.502 242.86 204.9 246.965 204.9C252.18 204.9 250.98 229.289 246.742 243.905C246.742 243.905 253.446 233.282 255.785 224.201C258.124 215.12 264.173 219.054 262.072 227.181C259.972 235.308 251.852 239.845 248.708 248.658C248.708 248.658 259.137 238.973 262.512 242.788C264.397 244.94 259.629 246.512 257.566 247.473C247.546 252.271 244.976 264.272 244.976 264.272L239.687 263.356Z" fill="#0071BC" stroke="#263238" stroke-linecap="round" stroke-linejoin="round"/>
<path d="M237.81 235.316C242.458 245.797 242.726 261.091 242.726 261.091C242.726 261.091 248.835 230.705 247.3 217.884" stroke="#263238" stroke-linecap="round" stroke-linejoin="round"/>
<path d="M257.901 229.289C257.901 229.289 251.077 243.682 244.834 249.202" stroke="#263238" stroke-linecap="round" stroke-linejoin="round"/>
<path d="M257.901 244.799C257.901 244.799 246.369 252.248 243.538 256.763" stroke="#263238" stroke-linecap="round" stroke-linejoin="round"/>
<path d="M230.018 281.718C230.018 281.718 221.212 269.583 219.112 256.174C217.011 242.765 212.37 244.59 211.58 248.784C210.791 252.978 217.607 267.721 217.607 267.721C217.607 267.721 207.654 256.919 203.296 247.935C198.939 238.951 195.802 234.243 192.346 236.463C187.936 239.294 202.142 259.154 213.606 269.159C213.606 269.159 202.246 263.832 195.355 257.47C188.465 251.109 185.515 257.672 191.631 263.378C197.747 269.084 207.073 268.503 214.485 274.224C214.485 274.224 200.451 271.729 199.698 276.742C199.274 279.573 204.116 278.299 206.403 278.016C217.421 276.638 226.062 285.346 226.062 285.346L230.018 281.718Z" fill="#0071BC" stroke="#263238" stroke-linecap="round" stroke-linejoin="round"/>
<path d="M216.437 257.105C218.195 268.444 226.233 281.45 226.233 281.45C226.233 281.45 204.675 259.191 199.058 247.585" stroke="#263238" stroke-linecap="round" stroke-linejoin="round"/>
<path d="M196.286 262.879C196.286 262.879 209.8 271.304 218.039 272.563" stroke="#263238" stroke-linecap="round" stroke-linejoin="round"/>
<path d="M204.667 275.945C204.667 275.945 218.374 275.945 223.209 278.254" stroke="#263238" stroke-linecap="round" stroke-linejoin="round"/>
<path d="M262.087 229.543C262.087 229.543 273.306 230.429 273.768 238.705C273.768 238.705 262.415 243.927 262.087 229.543Z" fill="#0071BC" stroke="#263238" stroke-linecap="round" stroke-linejoin="round"/>
<path d="M284.272 231.591C284.272 231.591 290.537 223.121 300.661 227.464C300.661 227.472 294.478 237.715 284.272 231.591Z" fill="#0071BC" stroke="#263238" stroke-linecap="round" stroke-linejoin="round"/>
<path d="M299.804 204.855C299.804 204.855 301.629 221.162 286.775 216.692C286.775 216.692 291.483 204.684 299.804 204.855Z" fill="#0071BC" stroke="#263238" stroke-linecap="round" stroke-linejoin="round"/>
<path d="M281.59 195.789C281.59 195.789 293.323 202.114 284.696 211.709C284.696 211.709 276.472 204.855 281.59 195.789Z" fill="#0071BC" stroke="#263238" stroke-linecap="round" stroke-linejoin="round"/>
<path d="M267.16 210.345C267.16 210.345 279.914 209.057 279.914 220.864C279.914 220.864 267.16 221.371 267.16 210.345Z" fill="#0071BC" stroke="#263238" stroke-linecap="round" stroke-linejoin="round"/>
<path d="M279.184 255.556C279.184 255.556 273.373 243.354 278.953 230.921C284.533 218.488 286.402 208.029 283.505 200.654" stroke="#263238" stroke-linecap="round" stroke-linejoin="round"/>
<path d="M271.347 213.519C271.347 213.519 278.99 216.558 281.59 224.432" stroke="#263238" stroke-linecap="round" stroke-linejoin="round"/>
<path d="M295.774 211.373C295.774 211.373 291.356 217.392 283.855 216.744" stroke="#263238" stroke-linecap="round" stroke-linejoin="round"/>
<path d="M295.774 229.2C295.774 229.2 283.534 232.731 278.64 231.576" stroke="#263238" stroke-linecap="round" stroke-linejoin="round"/>
<path d="M265.745 233.267C265.745 233.267 271.213 239.272 276.718 239.175" stroke="#263238" stroke-linecap="round" stroke-linejoin="round"/>
<path d="M190.744 272.042C190.744 272.042 181 274.425 181.805 281.778C181.768 281.778 192.517 284.758 190.744 272.042Z" fill="#0071BC" stroke="#263238" stroke-linecap="round" stroke-linejoin="round"/>
<path d="M171.502 277.033C171.502 277.033 164.798 270.47 156.484 275.744C156.484 275.729 163.39 283.864 171.502 277.033Z" fill="#0071BC" stroke="#263238" stroke-linecap="round" stroke-linejoin="round"/>
<path d="M154.011 255.69C154.011 255.69 154.756 270.298 167.174 264.227C167.174 264.227 161.311 254.349 154.011 255.69Z" fill="#0071BC" stroke="#263238" stroke-linecap="round" stroke-linejoin="round"/>
<path d="M168.753 245.097C168.753 245.097 159.345 252.345 168.284 259.564C168.284 259.564 174.556 252.353 168.753 245.097Z" fill="#0071BC" stroke="#263238" stroke-linecap="round" stroke-linejoin="round"/>
<path d="M183.541 255.861C183.541 255.861 172.128 256.547 173.812 266.946C173.812 266.946 185.12 265.568 183.541 255.861Z" fill="#0071BC" stroke="#263238" stroke-linecap="round" stroke-linejoin="round"/>
<path d="M179.406 297.392C179.406 297.392 182.788 285.816 176.099 275.67C169.409 265.523 166.25 256.569 167.763 249.656" stroke="#263238" stroke-linecap="round" stroke-linejoin="round"/>
<path d="M180.307 259.251C180.307 259.251 174.005 263.02 172.858 270.328" stroke="#263238" stroke-linecap="round" stroke-linejoin="round"/>
<path d="M158.496 260.852C158.496 260.852 163.241 265.523 169.737 263.884" stroke="#263238" stroke-linecap="round" stroke-linejoin="round"/>
<path d="M161.036 276.556C161.036 276.556 172.314 277.912 176.434 276.198" stroke="#263238" stroke-linecap="round" stroke-linejoin="round"/>
<path d="M188.062 275.848C188.062 275.848 184.099 281.912 179.242 282.612" stroke="#263238" stroke-linecap="round" stroke-linejoin="round"/>
<path d="M298.113 257.277L296.876 257.232L297.189 253.627C297.256 253.275 297.206 252.912 297.047 252.591C296.787 252.189 296.25 252.107 295.781 252.003C294.411 251.69 293.198 250.897 292.362 249.768C291.766 248.956 291.341 247.958 290.477 247.444C289.27 246.699 287.751 247.235 286.402 247.622C285.054 248.01 283.326 248.121 282.521 246.974C282.052 246.304 282.022 245.335 281.374 244.829C280.726 244.322 279.534 244.65 278.677 245.075C275.377 246.699 271.69 248.799 271.056 252.442C270.833 253.686 266.974 258.878 265.596 259.571C263.19 260.771 258.638 258.476 256.195 257.664C250.952 257.537 245.724 257.039 240.551 256.174C239.061 256.174 237.571 257.664 236.081 259.154C235.336 259.899 235.336 260.644 234.591 261.389C232.357 263.624 228.632 265.114 227.887 268.838C227.887 274.053 221.927 277.033 217.458 279.267C210.753 282.247 204.049 282.992 197.344 285.972C193.62 287.462 189.15 287.462 184.68 287.462C179.466 291.932 175.741 297.146 172.016 303.106C171.271 303.851 170.526 305.341 169.036 305.341C121.36 305.341 72.9387 305.341 25.0314 305.08V322.079H298.426L298.113 257.277Z" fill="white"/>
<path d="M25.024 305.08C72.9313 305.341 121.353 305.341 169.029 305.341C170.519 305.341 171.264 303.851 172.009 303.106C175.733 297.146 179.458 291.932 184.673 287.462C189.142 287.462 193.612 287.462 197.337 285.972C204.041 282.992 210.746 282.247 217.45 279.268C221.92 277.033 227.88 274.053 227.88 268.838C228.624 265.114 232.349 263.624 234.584 261.389C235.329 260.644 235.329 259.899 236.074 259.154C237.564 257.664 239.054 256.174 240.544 256.174C245.716 257.039 250.944 257.537 256.187 257.664C258.631 258.476 263.182 260.771 265.589 259.571C266.967 258.878 270.803 253.686 271.049 252.442C271.682 248.822 275.37 246.699 278.67 245.075C279.526 244.65 280.614 244.248 281.366 244.829C282.119 245.41 282.044 246.319 282.514 246.974C283.318 248.121 285.039 248.002 286.395 247.622C287.751 247.242 289.263 246.728 290.47 247.444C291.334 247.958 291.758 248.933 292.354 249.768C293.191 250.897 294.404 251.69 295.774 252.003C296.243 252.107 296.779 252.189 297.04 252.591" stroke="#263238" stroke-linecap="round" stroke-linejoin="round"/>
<path d="M257.901 272.042C261.082 272.28 265.693 270.142 265.745 270.328C265.797 270.514 271.347 271.185 271.347 271.185C271.347 271.185 278.7 273.278 279.914 272.042C281.128 270.805 284.875 271.654 287.862 271.379C290.85 271.103 293.896 273.524 293.896 273.524C293.896 273.524 299.171 278.046 299.856 278.254C300.541 278.463 305.86 280.02 307.924 281.45" stroke="#263238" stroke-linecap="round" stroke-linejoin="round"/>
<path d="M169.029 305.341H181.693C181.693 305.341 189.887 301.117 194.089 301.579C198.29 302.04 201.873 305.08 201.873 305.08H209.114L218.009 306.197H223.879" stroke="#263238" stroke-linecap="round" stroke-linejoin="round"/>
<path d="M253.714 286.896C251.949 284.951 244.566 284.542 243.538 282.687C242.51 280.832 236.037 285.078 235.15 284.423C234.264 283.767 229.6 284.944 228.84 287.157C228.081 289.369 228.453 289.771 225.466 290.881" stroke="#263238" stroke-linecap="round" stroke-linejoin="round"/>
<path d="M301.025 260.726C300.462 260.231 299.741 259.952 298.992 259.937C298.242 259.922 297.511 260.172 296.928 260.644C296.76 260.805 296.581 260.954 296.392 261.091C295.853 261.325 295.263 261.415 294.679 261.352C293.356 261.383 292.078 261.84 291.036 262.655C290.727 262.956 290.362 263.194 289.963 263.356C289.718 263.412 289.469 263.444 289.218 263.452C288.56 263.539 287.936 263.796 287.408 264.197" stroke="#263238" stroke-linecap="round" stroke-linejoin="round"/>
<path d="M261.789 305.639C265.03 307.069 269.03 305.81 271.474 303.225C273.41 301.161 274.982 298.092 277.813 297.973C278.558 297.973 279.303 298.137 280.048 298.144C281.724 298.144 283.236 297.243 284.793 296.655C286.35 296.066 288.294 295.746 289.553 296.848C290.388 297.593 290.738 298.778 291.647 299.418C292.555 300.059 293.725 299.962 294.798 300.163C295.87 300.364 297.033 301.236 296.809 302.309" stroke="#263238" stroke-linecap="round" stroke-linejoin="round"/>
</svg>
