<svg width="31" height="36" viewBox="0 0 31 36" fill="none" xmlns="http://www.w3.org/2000/svg">
<path d="M25.271 34.5556C23.3112 36.4554 21.1715 36.1554 19.1117 35.2556C16.932 34.3357 14.9323 34.2957 12.6326 35.2556C9.75292 36.4954 8.23312 36.1354 6.51333 34.5556C-3.24543 24.4969 -1.80562 9.17884 9.27299 8.61891C11.9726 8.75889 13.8524 10.0987 15.4322 10.2187C17.7919 9.73877 20.0516 8.35894 22.5713 8.53892C25.5909 8.77889 27.8706 9.97874 29.3705 12.1385C23.1312 15.878 24.611 24.097 30.3303 26.3967C29.1905 29.3963 27.7107 32.3759 25.251 34.5756L25.271 34.5556ZM15.2322 8.49893C14.9323 4.03949 18.5518 0.359955 22.7113 0C23.2912 5.15935 18.0319 8.99886 15.2322 8.49893Z" fill="black"/>
</svg>
